<svg xmlns="http://www.w3.org/2000/svg" xmlns:xlink="http://www.w3.org/1999/xlink" width="1838.576" height="3005.126" viewBox="0 0 1838.576 3005.126">
  <defs>
    <clipPath id="clip-path">
      <rect id="Rectangle_15" data-name="Rectangle 15" width="1838.576" height="3005.126" fill="#708ec8"/>
    </clipPath>
  </defs>
  <g id="Group_19" data-name="Group 19" clip-path="url(#clip-path)">
    <path id="Path_1" data-name="Path 1" d="M1838.576,1502.563c0-254.319-189.6-464.211-435.123-496.423l.119-.079c-274.3-36.376-372.854-165.069-336.478-439.366l-.109.089a503.484,503.484,0,0,0,4.46-65.929C1071.445,224.243,847.2,0,570.591,0S69.736,224.243,69.736,500.854c0,254.319,189.587,464.211,435.114,496.423l-.109.079c274.3,36.376,372.844,165.069,336.468,439.356l.119-.079a503.453,503.453,0,0,0-4.461,65.929c0,15.112.791,30.037,2.1,44.8l-.1-.079c26.654,297.292-85.442,431.474-382.744,458.128l.109.089C200.536,2028.093,0,2242.713,0,2504.271c0,276.612,224.233,500.854,500.854,500.854s500.854-224.243,500.854-500.854c0-15.113-.791-30.037-2.107-44.8l.1.079c-26.654-297.292,85.452-431.474,382.744-458.128l-.1-.089c255.694-22.589,456.229-237.2,456.229-498.767" fill="#536ea5"/>
  </g>
</svg>
