<?xml version="1.0" encoding="iso-8859-1"?>
<!-- Uploaded to: SVGRepo, www.svgrepo.com, Transformed by: SVGRepo Tools -->
<svg height="800px" width="800px" version="1.1" id="Layer_1" xmlns="http://www.w3.org/2000/svg" xmlns:xlink="http://www.w3.org/1999/xlink" 
	 viewBox="0 0 512 512" xml:space="preserve">
<g transform="translate(1)">
	<path style="fill:#434C6D;" d="M502.467,256c0,136.533-110.933,247.467-247.467,247.467S7.533,392.533,7.533,256
		S118.467,8.533,255,8.533S502.467,119.467,502.467,256"/>
	<path style="fill:#231317;" d="M255,512C114.2,512-1,396.8-1,256S114.2,0,255,0s256,115.2,256,256S395.8,512,255,512z M255,17.067
		C123.587,17.067,16.067,124.587,16.067,256S123.587,494.933,255,494.933S493.933,387.413,493.933,256S386.413,17.067,255,17.067z"
		/>
</g>
<g>
</g>
<g>
</g>
<g>
</g>
<g>
</g>
<g>
</g>
<g>
</g>
<g>
</g>
<g>
</g>
<g>
</g>
<g>
</g>
<g>
</g>
<g>
</g>
<g>
</g>
<g>
</g>
<g>
</g>
</svg>
