<?xml version="1.0" encoding="utf-8"?>
<!-- Generator: Adobe Illustrator 27.1.1, SVG Export Plug-In . SVG Version: 6.00 Build 0)  -->
<svg version="1.1" id="Layer_1" xmlns="http://www.w3.org/2000/svg" xmlns:xlink="http://www.w3.org/1999/xlink" x="0px" y="0px"
	 viewBox="0 0 378.33 378.33" style="enable-background:new 0 0 378.33 378.33;" xml:space="preserve">
<style type="text/css">
	.st0{fill:#5386C6;}
	.st1{fill:#6899D1;}
	.st2{opacity:0.1;}
	.st3{fill:#010101;}
	.st4{fill:#444A54;}
	.st5{fill:#CDD2D9;}
	.st6{fill:#E7E9ED;}
	.st7{fill:#F1F2F2;}
	.st8{fill:#939598;}
</style>
<g>
	<g>
		<path class="st0" d="M247.45,283.78v13.43v17.9v17.91c0,6.18,16.03,11.19,35.81,11.19c19.78,0,35.82-5.01,35.82-11.19v-17.91
			v-17.9v-13.43H247.45z"/>
	</g>
	<g>
		<path class="st1" d="M319.07,283.78c0,6.18-16.04,11.19-35.82,11.19c-19.78,0-35.81-5.01-35.81-11.19
			c0-6.18,16.03-11.19,35.81-11.19C303.04,272.59,319.07,277.6,319.07,283.78z"/>
	</g>
	<g class="st2">
		<path class="st3" d="M319.07,322.95v-7.84c0,6.18-16.04,11.19-35.82,11.19c-19.78,0-35.81-5.01-35.81-11.19v7.84
			c0.05,0.04,0.1,0.08,0.15,0.11c2.21,1.63,5.24,3.05,9,4.23c7.19,2.25,16.65,3.48,26.65,3.48c10.01,0,19.47-1.23,26.66-3.48
			c3.76-1.17,6.79-2.6,9-4.23C318.97,323.03,319.02,322.99,319.07,322.95z"/>
	</g>
	<g class="st2">
		<path class="st3" d="M319.07,305.05v-7.84c0,6.18-16.04,11.19-35.82,11.19c-19.78,0-35.81-5.01-35.81-11.19v7.84
			c0.05,0.04,0.1,0.08,0.15,0.12c2.21,1.63,5.24,3.05,9,4.23c7.19,2.25,16.65,3.48,26.65,3.48c10.01,0,19.47-1.24,26.66-3.48
			c3.76-1.18,6.79-2.6,9-4.23C318.97,305.12,319.02,305.09,319.07,305.05z"/>
	</g>
</g>
<g>
	<g>
		<path class="st0" d="M59.17,283.78v13.43v17.9v17.91c0,6.18,16.03,11.19,35.81,11.19c19.78,0,35.82-5.01,35.82-11.19v-17.91v-17.9
			v-13.43H59.17z"/>
	</g>
	<g>
		<path class="st1" d="M130.8,283.78c0,6.18-16.04,11.19-35.82,11.19c-19.78,0-35.81-5.01-35.81-11.19
			c0-6.18,16.03-11.19,35.81-11.19C114.76,272.59,130.8,277.6,130.8,283.78z"/>
	</g>
	<g class="st2">
		<path class="st3" d="M130.8,322.95v-7.84c0,6.18-16.04,11.19-35.82,11.19c-19.78,0-35.81-5.01-35.81-11.19v7.84
			c0.05,0.04,0.1,0.08,0.15,0.11c2.21,1.63,5.24,3.05,9,4.23c7.19,2.25,16.65,3.48,26.65,3.48c10.01,0,19.47-1.23,26.66-3.48
			c3.76-1.17,6.79-2.6,9-4.23C130.69,323.03,130.74,322.99,130.8,322.95z"/>
	</g>
	<g class="st2">
		<path class="st3" d="M130.8,305.05v-7.84c0,6.18-16.04,11.19-35.82,11.19c-19.78,0-35.81-5.01-35.81-11.19v7.84
			c0.05,0.04,0.1,0.08,0.15,0.12c2.21,1.63,5.24,3.05,9,4.23c7.19,2.25,16.65,3.48,26.65,3.48c10.01,0,19.47-1.24,26.66-3.48
			c3.76-1.18,6.79-2.6,9-4.23C130.69,305.12,130.74,305.09,130.8,305.05z"/>
	</g>
</g>
<g>
	<polygon class="st4" points="202.6,234.68 202.6,195.48 175.72,195.48 175.72,234.68 81.62,234.68 81.62,261.57 175.72,261.57 
		202.6,261.57 296.7,261.57 296.7,234.68 	"/>
</g>
<g>
	<rect x="175.72" y="162.99" class="st5" width="26.89" height="71.7"/>
</g>
<rect x="184.68" y="163.36" class="st6" width="8.97" height="80.64"/>
<g>
	<polygon class="st4" points="296.7,236.3 269.82,236.3 269.82,286.04 296.7,286.04 	"/>
	<g>
		<polygon class="st4" points="108.5,234.68 81.62,234.68 81.62,284.42 108.5,284.42 		"/>
	</g>
</g>
<g>
	<g>
		<g>
			<path class="st7" d="M108.1,66.52v30.4v40.53v40.54c0,13.98,36.29,25.32,81.05,25.32c44.77,0,81.07-11.34,81.07-25.32v-40.54
				V96.92v-30.4H108.1z"/>
		</g>
		<g>
			<path class="st7" d="M270.22,66.52c0,13.99-36.3,25.33-81.07,25.33c-44.76,0-81.05-11.34-81.05-25.33s36.29-25.33,81.05-25.33
				C233.92,41.2,270.22,52.54,270.22,66.52z"/>
		</g>
		<g class="st2">
			<path class="st3" d="M270.22,155.2v-17.75c0,14-36.3,25.34-81.07,25.34c-44.76,0-81.05-11.34-81.05-25.34v17.75
				c0.12,0.09,0.23,0.17,0.35,0.26c4.99,3.69,11.85,6.91,20.37,9.57c16.27,5.09,37.69,7.88,60.33,7.88
				c22.65,0,44.08-2.79,60.35-7.88c8.52-2.66,15.38-5.88,20.36-9.57C269.98,155.38,270.1,155.29,270.22,155.2z"/>
		</g>
		<g class="st2">
			<path class="st3" d="M270.22,114.67V96.92c0,13.99-36.3,25.33-81.07,25.33c-44.76,0-81.05-11.34-81.05-25.33v17.74
				c0.12,0.09,0.23,0.18,0.35,0.27c4.99,3.69,11.85,6.91,20.37,9.57c16.27,5.08,37.69,7.88,60.33,7.88c22.65,0,44.08-2.8,60.35-7.88
				c8.52-2.66,15.38-5.89,20.36-9.57C269.98,114.84,270.1,114.76,270.22,114.67z"/>
		</g>
	</g>
	<g>
		<g>
			<g>
				<path class="st8" d="M199.88,177.01c-7.14,0.22-14.29,0.22-21.43,0c0.79-25.23,1.58-50.46,2.37-75.68
					c5.57,0.17,11.14,0.17,16.7,0C198.3,126.56,199.09,151.79,199.88,177.01z"/>
				<path class="st8" d="M144.97,144.56c0.79-5.53,1.57-11.05,2.36-16.58c27.74,3.95,55.91,3.95,83.65,0
					c0.79,5.53,1.57,11.05,2.36,16.58C204.04,148.74,174.28,148.74,144.97,144.56z"/>
			</g>
			<g>
				<path d="M199.39,178.62c-6.82,0.2-13.64,0.2-20.46,0c0.71-23.85,1.42-47.71,2.13-71.56c5.4,0.16,10.81,0.16,16.21,0
					C197.97,130.91,198.68,154.76,199.39,178.62z"/>
				<path d="M146.73,148.03c0.71-5.23,1.41-10.46,2.12-15.69c26.75,3.61,53.86,3.61,80.61,0c0.71,5.23,1.41,10.46,2.12,15.69
					C203.43,151.84,174.89,151.84,146.73,148.03z"/>
			</g>
		</g>
	</g>
</g>
</svg>
