<?xml version="1.0" encoding="utf-8"?>
<!-- Generator: Adobe Illustrator 27.1.1, SVG Export Plug-In . SVG Version: 6.00 Build 0)  -->
<svg version="1.1" id="Layer_1" xmlns="http://www.w3.org/2000/svg" xmlns:xlink="http://www.w3.org/1999/xlink" x="0px" y="0px"
	 viewBox="0 0 512 512" style="enable-background:new 0 0 512 512;" xml:space="preserve">
<style type="text/css">
	.st0{fill:#BEE3DB;}
	.st1{fill:#1E2C33;}
	.st2{fill:#FFFFFF;}
	.st3{fill:#3450A3;}
	.st4{fill:#4776BB;}
	.st5{fill:#3A53A4;}
	.st6{fill:#3B55A5;}
	.st7{fill:#3A57A7;}
	.st8{fill:#198058;}
	.st9{fill:#69BD48;}
</style>
<rect x="212" y="364" class="st0" width="88" height="36"/>
<path class="st1" d="M84,328V149.37c0-5,3.41-5.36,8.19-5.36h328c4.78,0,7.81,0.36,7.81,5.36V328H84z"/>
<path class="st0" d="M84,328v29c0,4.78,3.41,11,8.19,11h328c4.78,0,7.81-6.22,7.81-11v-29H84z"/>
<rect x="100" y="160" class="st2" width="312" height="152"/>
<path class="st0" d="M328,408c0-4.42-3.58-8-8-8H192c-4.42,0-8,3.58-8,8l0,0c0,4.42,3.58,8,8,8h128C324.42,416,328,412.42,328,408
	L328,408z"/>
<circle class="st1" cx="256.19" cy="345" r="8"/>
<rect x="216" y="260" class="st3" width="16" height="36"/>
<rect x="248" y="276" class="st4" width="16" height="20"/>
<rect x="344" y="256" class="st5" width="16" height="39.99"/>
<rect x="280" y="244.01" class="st6" width="16" height="52"/>
<rect x="312" y="216" class="st7" width="16" height="80"/>
<g>
	<rect x="164" y="180" class="st8" width="4" height="124"/>
	<rect x="171.3" y="301.57" class="st8" width="2.43" height="2.43"/>
	<rect x="178.59" y="301.57" class="st8" width="2.43" height="2.43"/>
	<rect x="193.17" y="301.57" class="st8" width="2.43" height="2.43"/>
	<rect x="200.48" y="301.57" class="st8" width="2.43" height="2.43"/>
	<rect x="207.77" y="301.57" class="st8" width="2.43" height="2.43"/>
	<rect x="215.06" y="301.57" class="st8" width="2.43" height="2.43"/>
	<rect x="222.35" y="301.57" class="st8" width="2.43" height="2.43"/>
	<rect x="229.64" y="301.57" class="st8" width="2.43" height="2.43"/>
	<rect x="236.94" y="301.57" class="st8" width="2.43" height="2.43"/>
	<rect x="244.24" y="301.57" class="st8" width="2.43" height="2.43"/>
	<rect x="251.53" y="301.57" class="st8" width="2.43" height="2.43"/>
	<rect x="258.82" y="301.57" class="st8" width="2.43" height="2.43"/>
	<rect x="266.11" y="301.57" class="st8" width="2.43" height="2.43"/>
	<rect x="273.42" y="301.57" class="st8" width="2.43" height="2.43"/>
	<rect x="280.71" y="301.57" class="st8" width="2.43" height="2.43"/>
	<rect x="288" y="301.57" class="st8" width="2.43" height="2.43"/>
	<rect x="295.29" y="301.57" class="st8" width="2.43" height="2.43"/>
	<rect x="302.59" y="301.57" class="st8" width="2.43" height="2.43"/>
	<rect x="309.89" y="301.57" class="st8" width="2.43" height="2.43"/>
	<rect x="317.18" y="301.57" class="st8" width="2.43" height="2.43"/>
	<rect x="324.47" y="301.57" class="st8" width="2.43" height="2.43"/>
	<rect x="331.77" y="301.57" class="st8" width="2.42" height="2.43"/>
	<rect x="339.07" y="301.57" class="st8" width="2.43" height="2.43"/>
	<rect x="346.35" y="301.57" class="st8" width="2.43" height="2.43"/>
	<rect x="353.65" y="301.57" class="st8" width="2.43" height="2.43"/>
	<rect x="185.88" y="301.57" class="st8" width="2.43" height="2.43"/>
	<rect x="167.99" y="264" class="st8" width="8" height="4"/>
	<rect x="167.99" y="228" class="st8" width="8" height="4"/>
	<rect x="167.99" y="188" class="st8" width="8" height="4"/>
</g>
<path class="st9" d="M180.04,294.87c-0.93,0-1.87-0.33-2.63-0.99c-1.66-1.45-1.83-3.98-0.38-5.64l44.25-50.58
	c1.27-1.46,3.41-1.8,5.07-0.8l28.93,17.36l29.22-29.22l31.44-40.89c0.82-1.07,2.1-1.67,3.47-1.55c1.34,0.1,2.55,0.87,3.2,2.04
	l31.61,56.9c1.08,1.93,0.38,4.37-1.56,5.44c-1.93,1.07-4.37,0.37-5.44-1.55l-28.66-51.58l-27.9,36.27c-0.1,0.14-0.22,0.27-0.34,0.39
	l-31.61,31.61c-1.3,1.3-3.31,1.55-4.89,0.6l-28.74-17.25l-42.05,48.06C182.26,294.41,181.16,294.87,180.04,294.87z"/>
</svg>
