<?xml version="1.0" encoding="utf-8"?>
<!-- Generator: Adobe Illustrator 27.1.1, SVG Export Plug-In . SVG Version: 6.00 Build 0)  -->
<svg version="1.1" id="Capa_1" xmlns="http://www.w3.org/2000/svg" xmlns:xlink="http://www.w3.org/1999/xlink" x="0px" y="0px"
	 viewBox="0 0 614 621" style="enable-background:new 0 0 614 621;" xml:space="preserve">
<style type="text/css">
	.st0{fill:#FFFFFF;stroke:#231F20;stroke-miterlimit:10;}
	.st1{fill:#556080;}
	.st2{fill:#38454F;}
	.st3{fill:#8697CB;}
	.st4{fill:#FFFFFF;}
	.st5{fill:#ECF0F1;}
</style>
<g>
	<rect x="169.5" y="181.63" class="st0" width="10" height="272.44"/>
	
		<rect x="300.72" y="179.05" transform="matrix(-1.836970e-16 1 -1 -1.836970e-16 620.9916 9.5544)" class="st0" width="10" height="272.44"/>
	<g>
		<g>
			<path class="st1" d="M271.72,109.08H77.81c-7.61,0-13.78-6.17-13.78-13.78v-45c0-7.61,6.17-13.78,13.78-13.78h193.91
				c7.61,0,13.78,6.17,13.78,13.78V95.3C285.5,102.91,279.33,109.08,271.72,109.08z"/>
			<path class="st2" d="M271.72,181.63H77.81c-7.61,0-13.78-6.17-13.78-13.78v-45c0-7.61,6.17-13.78,13.78-13.78h193.91
				c7.61,0,13.78,6.17,13.78,13.78v44.99C285.5,175.46,279.33,181.63,271.72,181.63z"/>
			<path class="st1" d="M271.72,254.18H77.81c-7.61,0-13.78-6.17-13.78-13.78v-45c0-7.61,6.17-13.78,13.78-13.78h193.91
				c7.61,0,13.78,6.17,13.78,13.78v44.99C285.5,248.01,279.33,254.18,271.72,254.18z"/>
			<circle class="st3" cx="100.31" cy="72.8" r="13.36"/>
			<circle class="st3" cx="251.13" cy="67.08" r="3.82"/>
			<circle class="st3" cx="235.86" cy="67.08" r="3.82"/>
			<circle class="st3" cx="258.77" cy="78.53" r="3.82"/>
			<circle class="st3" cx="243.5" cy="78.53" r="3.82"/>
			<circle class="st3" cx="220.59" cy="67.08" r="3.82"/>
			<circle class="st3" cx="228.22" cy="78.53" r="3.82"/>
			<circle class="st3" cx="205.31" cy="67.08" r="3.82"/>
			<circle class="st3" cx="212.95" cy="78.53" r="3.82"/>
			<circle class="st3" cx="190.04" cy="67.08" r="3.82"/>
			<circle class="st3" cx="197.68" cy="78.53" r="3.82"/>
			<circle class="st3" cx="100.31" cy="145.35" r="13.36"/>
			<circle class="st3" cx="251.13" cy="139.63" r="3.82"/>
			<circle class="st3" cx="235.86" cy="139.63" r="3.82"/>
			<circle class="st3" cx="258.77" cy="151.08" r="3.82"/>
			<circle class="st3" cx="243.5" cy="151.08" r="3.82"/>
			<circle class="st3" cx="220.59" cy="139.63" r="3.82"/>
			<circle class="st3" cx="228.22" cy="151.08" r="3.82"/>
			<circle class="st3" cx="205.31" cy="139.63" r="3.82"/>
			<circle class="st3" cx="212.95" cy="151.08" r="3.82"/>
			<circle class="st3" cx="190.04" cy="139.63" r="3.82"/>
			<circle class="st3" cx="197.68" cy="151.08" r="3.82"/>
			<circle class="st3" cx="100.31" cy="217.9" r="13.36"/>
			<circle class="st3" cx="251.13" cy="212.18" r="3.82"/>
			<circle class="st3" cx="235.86" cy="212.18" r="3.82"/>
			<circle class="st3" cx="258.77" cy="223.63" r="3.82"/>
			<circle class="st3" cx="243.5" cy="223.63" r="3.82"/>
			<circle class="st3" cx="220.59" cy="212.18" r="3.82"/>
			<circle class="st3" cx="228.22" cy="223.63" r="3.82"/>
			<circle class="st3" cx="205.31" cy="212.18" r="3.82"/>
			<circle class="st3" cx="212.95" cy="223.63" r="3.82"/>
			<circle class="st3" cx="190.04" cy="212.18" r="3.82"/>
			<circle class="st3" cx="197.68" cy="223.63" r="3.82"/>
		</g>
	</g>
	<g>
		<g>
			<g>
				<path class="st1" d="M271.72,447.01H77.81c-7.61,0-13.78-6.17-13.78-13.78v-45c0-7.61,6.17-13.78,13.78-13.78h193.91
					c7.61,0,13.78,6.17,13.78,13.78v44.99C285.5,440.84,279.33,447.01,271.72,447.01z"/>
				<path class="st2" d="M271.72,519.56H77.81c-7.61,0-13.78-6.17-13.78-13.78v-45c0-7.61,6.17-13.78,13.78-13.78h193.91
					c7.61,0,13.78,6.17,13.78,13.78v44.99C285.5,513.39,279.33,519.56,271.72,519.56z"/>
				<path class="st1" d="M271.72,592.11H77.81c-7.61,0-13.78-6.17-13.78-13.78v-45c0-7.61,6.17-13.78,13.78-13.78h193.91
					c7.61,0,13.78,6.17,13.78,13.78v44.99C285.5,585.94,279.33,592.11,271.72,592.11z"/>
				<circle class="st3" cx="100.31" cy="410.73" r="13.36"/>
				<circle class="st3" cx="251.13" cy="405.01" r="3.82"/>
				<circle class="st3" cx="235.86" cy="405.01" r="3.82"/>
				<circle class="st3" cx="258.77" cy="416.46" r="3.82"/>
				<circle class="st3" cx="243.5" cy="416.46" r="3.82"/>
				<circle class="st3" cx="220.59" cy="405.01" r="3.82"/>
				<circle class="st3" cx="228.22" cy="416.46" r="3.82"/>
				<circle class="st3" cx="205.31" cy="405.01" r="3.82"/>
				<circle class="st3" cx="212.95" cy="416.46" r="3.82"/>
				<circle class="st3" cx="190.04" cy="405.01" r="3.82"/>
				<circle class="st3" cx="197.68" cy="416.46" r="3.82"/>
				<circle class="st3" cx="100.31" cy="483.28" r="13.36"/>
				<circle class="st3" cx="251.13" cy="477.56" r="3.82"/>
				<circle class="st3" cx="235.86" cy="477.56" r="3.82"/>
				<circle class="st3" cx="258.77" cy="489.01" r="3.82"/>
				<circle class="st3" cx="243.5" cy="489.01" r="3.82"/>
				<circle class="st3" cx="220.59" cy="477.56" r="3.82"/>
				<circle class="st3" cx="228.22" cy="489.01" r="3.82"/>
				<circle class="st3" cx="205.31" cy="477.56" r="3.82"/>
				<circle class="st3" cx="212.95" cy="489.01" r="3.82"/>
				<circle class="st3" cx="190.04" cy="477.56" r="3.82"/>
				<circle class="st3" cx="197.68" cy="489.01" r="3.82"/>
				<circle class="st3" cx="100.31" cy="555.83" r="13.36"/>
				<circle class="st3" cx="251.13" cy="550.11" r="3.82"/>
				<circle class="st3" cx="235.86" cy="550.11" r="3.82"/>
				<circle class="st3" cx="258.77" cy="561.56" r="3.82"/>
				<circle class="st3" cx="243.5" cy="561.56" r="3.82"/>
				<circle class="st3" cx="220.59" cy="550.11" r="3.82"/>
				<circle class="st3" cx="228.22" cy="561.56" r="3.82"/>
				<circle class="st3" cx="205.31" cy="550.11" r="3.82"/>
				<circle class="st3" cx="212.95" cy="561.56" r="3.82"/>
				<circle class="st3" cx="190.04" cy="550.11" r="3.82"/>
				<circle class="st3" cx="197.68" cy="561.56" r="3.82"/>
			</g>
		</g>
	</g>
</g>
<g>
	<path class="st1" d="M568.41,308.11l-15.22-2.93c-22.59-4.34-32.94-30.73-19.34-49.27l9.56-13.03l-20.64-20.64l-12.83,8.7
		c-19.03,12.9-45.03,1.56-48.53-21.16l-2.47-15.98h-29.18l-3.78,19.66c-4.25,22.09-29.7,32.63-48.32,20.01l-16.57-11.22
		l-20.64,20.64l9.56,13.03c13.6,18.55,3.25,44.93-19.34,49.27l-15.22,2.93v29.18l15.97,2.46c22.73,3.5,34.06,29.48,21.16,48.53
		l-8.7,12.83l20.64,20.64l13.03-9.56c18.55-13.6,44.93-3.25,49.27,19.34l2.94,15.23h29.18l1.73-11.24
		c3.57-23.23,30.52-34.39,49.47-20.49l9.16,6.72l20.64-20.64l-8.7-12.83c-12.9-19.03-1.56-45.03,21.16-48.53l15.99-2.47V308.11z"/>
	<g>
		<circle class="st4" cx="441.94" cy="320.27" r="42.16"/>
		<path class="st5" d="M441.94,372.97c-29.06,0-52.7-23.64-52.7-52.7s23.64-52.7,52.7-52.7s52.7,23.64,52.7,52.7
			S471,372.97,441.94,372.97z M441.94,288.65c-17.43,0-31.62,14.19-31.62,31.62s14.19,31.62,31.62,31.62s31.62-14.19,31.62-31.62
			S459.37,288.65,441.94,288.65z"/>
	</g>
</g>
</svg>
